<?xml version="1.0" encoding="UTF-8" standalone="no"?>
<!DOCTYPE svg PUBLIC "-//W3C//DTD SVG 1.1//EN" "http://www.w3.org/Graphics/SVG/1.1/DTD/svg11.dtd">
<svg width="100%" height="100%" viewBox="0 0 74 100" version="1.1" xmlns="http://www.w3.org/2000/svg" xmlns:xlink="http://www.w3.org/1999/xlink" xml:space="preserve" xmlns:serif="http://www.serif.com/" style="fill-rule:evenodd;clip-rule:evenodd;stroke-linecap:round;stroke-linejoin:round;stroke-miterlimit:1.5;">
    <g transform="matrix(1,0,0,1,-1774.17,-1028.13)">
        <g transform="matrix(1,0,0,1,-337.594,686.53)">
            <g transform="matrix(1.1542,0,0,1.01736,1409.99,-447.101)">
                <path d="M669.346,806.943C669.346,804.641 667.702,802.776 665.674,802.776C655.143,802.776 624.928,802.776 614.397,802.776C612.369,802.776 610.724,804.641 610.724,806.943C610.724,818.96 610.724,853.59 610.724,865.607C610.724,867.909 612.369,869.774 614.397,869.774C624.928,869.774 655.143,869.774 665.674,869.774C667.702,869.774 669.346,867.909 669.346,865.607C669.346,853.59 669.346,818.96 669.346,806.943Z" style="fill:none;stroke:white;stroke-width:5.74px;"/>
            </g>
            <g transform="matrix(0.930179,0,0,0.819901,1553.36,-300.79)">
                <clipPath id="_clip1">
                    <rect x="603.685" y="796.694" width="74.185" height="8.926"/>
                </clipPath>
                <g clip-path="url(#_clip1)">
                    <path d="M669.346,807.946C669.346,806.575 668.866,805.26 668.011,804.29C667.157,803.321 665.998,802.776 664.789,802.776C653.852,802.776 626.218,802.776 615.282,802.776C614.073,802.776 612.914,803.321 612.059,804.29C611.204,805.26 610.724,806.575 610.724,807.946C610.724,820.432 610.724,852.118 610.724,864.604C610.724,865.975 611.204,867.29 612.059,868.26C612.914,869.229 614.073,869.774 615.282,869.774C626.218,869.774 653.852,869.774 664.789,869.774C665.998,869.774 667.157,869.229 668.011,868.26C668.866,867.29 669.346,865.975 669.346,864.604C669.346,852.118 669.346,820.432 669.346,807.946Z" style="fill:none;stroke:white;stroke-width:9.5px;"/>
                </g>
            </g>
            <g transform="matrix(0.604433,0,0,0.819901,1762.09,-312.429)">
                <clipPath id="_clip2">
                    <rect x="603.685" y="796.694" width="74.185" height="8.926"/>
                </clipPath>
                <g clip-path="url(#_clip2)">
                    <path d="M669.346,807.946C669.346,806.575 668.607,805.26 667.292,804.29C665.977,803.321 664.193,802.776 662.333,802.776C651.055,802.776 629.015,802.776 617.738,802.776C615.878,802.776 614.094,803.321 612.778,804.29C611.463,805.26 610.724,806.575 610.724,807.946C610.724,820.432 610.724,852.118 610.724,864.604C610.724,865.975 611.463,867.29 612.778,868.26C614.094,869.229 615.878,869.774 617.738,869.774C629.015,869.774 651.055,869.774 662.333,869.774C664.193,869.774 665.977,869.229 667.292,868.26C668.607,867.29 669.346,865.975 669.346,864.604C669.346,852.118 669.346,820.432 669.346,807.946Z" style="fill:none;stroke:white;stroke-width:11.57px;"/>
                </g>
            </g>
        </g>
    </g>
</svg>
