<?xml version="1.0" encoding="UTF-8" standalone="no"?>
<!DOCTYPE svg PUBLIC "-//W3C//DTD SVG 1.1//EN" "http://www.w3.org/Graphics/SVG/1.1/DTD/svg11.dtd">
<svg width="100%" height="100%" viewBox="0 0 88 88" version="1.1" xmlns="http://www.w3.org/2000/svg" xmlns:xlink="http://www.w3.org/1999/xlink" xml:space="preserve" xmlns:serif="http://www.serif.com/" style="fill-rule:evenodd;clip-rule:evenodd;stroke-linecap:round;stroke-linejoin:round;stroke-miterlimit:1.5;">
    <g transform="matrix(1,0,0,1,-1812.54,324.541)">
        <g transform="matrix(1.50419,0,0,1.50419,-501.54,-1885.87)">
            <g transform="matrix(0.402955,0,0,0.352578,1293.71,756.329)">
                <path d="M669.346,810.769C669.346,808.649 668.609,806.616 667.298,805.117C665.986,803.618 664.207,802.776 662.352,802.776L617.718,802.776C615.863,802.776 614.084,803.618 612.773,805.117C611.461,806.616 610.724,808.649 610.724,810.769L610.724,861.781C610.724,863.901 611.461,865.934 612.773,867.433C614.084,868.932 615.863,869.774 617.718,869.774L662.352,869.774C664.207,869.774 665.986,868.932 667.298,867.433C668.609,865.934 669.346,863.901 669.346,861.781L669.346,810.769Z" style="fill:none;stroke:white;stroke-width:7.32px;"/>
            </g>
            <g transform="matrix(0.402955,0,0,0.352578,1325.49,756.329)">
                <path d="M669.346,810.769C669.346,808.649 668.609,806.616 667.298,805.117C665.986,803.618 664.207,802.776 662.352,802.776L617.718,802.776C615.863,802.776 614.084,803.618 612.773,805.117C611.461,806.616 610.724,808.649 610.724,810.769L610.724,861.781C610.724,863.901 611.461,865.934 612.773,867.433C614.084,868.932 615.863,869.774 617.718,869.774L662.352,869.774C664.207,869.774 665.986,868.932 667.298,867.433C668.609,865.934 669.346,863.901 669.346,861.781L669.346,810.769Z" style="fill:none;stroke:white;stroke-width:7.32px;"/>
            </g>
            <g transform="matrix(0.402955,0,0,0.352578,1293.71,787.922)">
                <path d="M669.346,810.769C669.346,808.649 668.609,806.616 667.298,805.117C665.986,803.618 664.207,802.776 662.352,802.776L617.718,802.776C615.863,802.776 614.084,803.618 612.773,805.117C611.461,806.616 610.724,808.649 610.724,810.769L610.724,861.781C610.724,863.901 611.461,865.934 612.773,867.433C614.084,868.932 615.863,869.774 617.718,869.774L662.352,869.774C664.207,869.774 665.986,868.932 667.298,867.433C668.609,865.934 669.346,863.901 669.346,861.781L669.346,810.769Z" style="fill:none;stroke:white;stroke-width:7.32px;"/>
            </g>
            <g transform="matrix(0.402955,0,0,0.352578,1325.49,787.922)">
                <path d="M669.346,810.769C669.346,808.649 668.609,806.616 667.298,805.117C665.986,803.618 664.207,802.776 662.352,802.776L617.718,802.776C615.863,802.776 614.084,803.618 612.773,805.117C611.461,806.616 610.724,808.649 610.724,810.769L610.724,861.781C610.724,863.901 611.461,865.934 612.773,867.433C614.084,868.932 615.863,869.774 617.718,869.774L662.352,869.774C664.207,869.774 665.986,868.932 667.298,867.433C668.609,865.934 669.346,863.901 669.346,861.781L669.346,810.769Z" style="fill:none;stroke:white;stroke-width:7.32px;"/>
            </g>
        </g>
    </g>
</svg>
