<?xml version="1.0" encoding="UTF-8" standalone="no"?>
<!DOCTYPE svg PUBLIC "-//W3C//DTD SVG 1.1//EN" "http://www.w3.org/Graphics/SVG/1.1/DTD/svg11.dtd">
<svg width="100%" height="100%" viewBox="0 0 60 60" version="1.1" xmlns="http://www.w3.org/2000/svg" xmlns:xlink="http://www.w3.org/1999/xlink" xml:space="preserve" xmlns:serif="http://www.serif.com/" style="fill-rule:evenodd;clip-rule:evenodd;stroke-linecap:round;stroke-linejoin:round;stroke-miterlimit:1.5;">
    <g transform="matrix(1,0,0,1,-1531.28,-1032.87)">
        <g transform="matrix(1,0,0,1,-6.43758,-4.41647)">
            <g transform="matrix(0.402955,0,0,0.352578,1293.71,756.329)">
                <path d="M669.346,814.799C669.346,808.159 664.636,802.776 658.826,802.776L621.244,802.776C615.434,802.776 610.724,808.159 610.724,814.799L610.724,857.751C610.724,864.391 615.434,869.774 621.244,869.774L658.826,869.774C664.636,869.774 669.346,864.391 669.346,857.751L669.346,814.799Z" style="fill:none;stroke:white;stroke-width:11.01px;"/>
            </g>
            <g transform="matrix(0.402955,0,0,0.352578,1325.49,756.329)">
                <path d="M669.346,814.799C669.346,808.159 664.636,802.776 658.826,802.776L621.244,802.776C615.434,802.776 610.724,808.159 610.724,814.799L610.724,857.751C610.724,864.391 615.434,869.774 621.244,869.774L658.826,869.774C664.636,869.774 669.346,864.391 669.346,857.751C669.346,845.605 669.346,826.945 669.346,814.799Z" style="fill:none;stroke:white;stroke-width:11.01px;"/>
            </g>
            <g transform="matrix(0.402955,0,0,0.352578,1293.71,787.922)">
                <path d="M669.346,814.799C669.346,808.159 664.636,802.776 658.826,802.776L621.244,802.776C615.434,802.776 610.724,808.159 610.724,814.799L610.724,857.751C610.724,864.391 615.434,869.774 621.244,869.774L658.826,869.774C664.636,869.774 669.346,864.391 669.346,857.751L669.346,814.799Z" style="fill:none;stroke:white;stroke-width:11.01px;"/>
            </g>
            <g transform="matrix(0.402955,0,0,0.352578,1325.49,787.922)">
                <path d="M669.346,814.799C669.346,808.159 664.636,802.776 658.826,802.776L621.244,802.776C615.434,802.776 610.724,808.159 610.724,814.799L610.724,857.751C610.724,864.391 615.434,869.774 621.244,869.774L658.826,869.774C664.636,869.774 669.346,864.391 669.346,857.751L669.346,814.799Z" style="fill:none;stroke:white;stroke-width:11.01px;"/>
            </g>
        </g>
    </g>
</svg>
