<?xml version="1.0" encoding="UTF-8" standalone="no"?>
<!DOCTYPE svg PUBLIC "-//W3C//DTD SVG 1.1//EN" "http://www.w3.org/Graphics/SVG/1.1/DTD/svg11.dtd">
<svg width="100%" height="100%" viewBox="0 0 101 101" version="1.1" xmlns="http://www.w3.org/2000/svg" xmlns:xlink="http://www.w3.org/1999/xlink" xml:space="preserve" xmlns:serif="http://www.serif.com/" style="fill-rule:evenodd;clip-rule:evenodd;stroke-linecap:round;stroke-linejoin:round;stroke-miterlimit:1.5;">
    <g transform="matrix(1,0,0,1,-1513.99,-1029.34)">
        <g transform="matrix(1,0,0,1,-292.301,1573.05)">
            <g transform="matrix(0.564729,0,0,0.690682,1470.64,-1103.03)">
                <ellipse cx="683.303" cy="882.528" rx="81.566" ry="66.692" style="fill:none;stroke:white;stroke-width:13.21px;"/>
            </g>
            <g transform="matrix(0.307534,0,0,0.307534,1858.9,-493.48)">
                <g transform="matrix(1,0,0,1,-56,-63)">
                    <clipPath id="_clip1">
                        <rect x="0" y="0" width="112" height="126"/>
                    </clipPath>
                    <g clip-path="url(#_clip1)">
                        <g transform="matrix(0.726604,0,0,0.726604,-1078.99,-855.122)">
                            <g>
                                <g>
                                    <g transform="matrix(1,0,0,1,-38.6701,2200.83)">
                                        <path d="M1524.32,-1009.18C1524.93,-1014.09 1526.96,-1017.69 1530.97,-1020.29C1539.1,-1025.58 1548.69,-1024.65 1556.81,-1019.8C1567.94,-1013.16 1664.02,-955.617 1670.48,-950.27C1674.35,-947.071 1677.89,-942.487 1677.61,-937.124C1677.49,-934.67 1676.5,-932.532 1674.99,-930.687C1673.31,-928.634 1670.91,-926.972 1668.86,-925.599C1663.09,-921.728 1591.81,-877.062 1559.56,-858.932C1553.78,-855.679 1549.21,-853.266 1546.45,-852.05C1544.74,-851.293 1543.47,-850.947 1542.78,-850.874C1537.81,-850.349 1532.43,-850.884 1528.47,-854.324C1526.58,-855.966 1525.41,-858.113 1524.73,-860.511C1523.98,-863.194 1523.9,-866.227 1523.7,-868.783C1523.68,-869.124 1523.63,-869.556 1523.64,-870.076C1524.76,-953.175 1524.62,-981.081 1524.29,-1008.62C1524.28,-1008.81 1524.29,-1008.99 1524.32,-1009.18ZM1541.76,-859.07C1541.98,-859.171 1548.8,-862.351 1555.52,-866.13C1587.6,-884.168 1658.52,-928.605 1664.26,-932.456C1665.5,-933.287 1666.96,-934.217 1668.11,-935.375C1668.73,-935.997 1669.32,-936.661 1669.37,-937.55C1669.51,-940.273 1667.18,-942.285 1665.22,-943.91C1658.82,-949.206 1563.6,-1006.13 1552.57,-1012.71C1547.2,-1015.92 1540.86,-1016.87 1535.47,-1013.37C1533.69,-1012.21 1532.86,-1010.57 1532.55,-1008.42C1532.88,-980.935 1533.01,-952.888 1531.9,-869.965C1531.89,-869.742 1531.93,-869.557 1531.94,-869.411C1532.07,-867.636 1532.1,-865.58 1532.47,-863.65C1532.7,-862.482 1533,-861.328 1533.89,-860.556C1536.04,-858.683 1539.05,-858.79 1541.76,-859.07Z" style="fill:white;"/>
                                    </g>
                                    <path d="M1487.46,1238.74C1487.39,1237.43 1487.31,1235.34 1487.52,1234.48C1487.57,1234.26 1487.63,1234.05 1487.69,1233.84C1487.68,1232.08 1487.69,1228.84 1488.02,1227.85C1487.84,1228.39 1487.72,1229.63 1487.72,1229.63C1487.72,1229.63 1487.44,1224.9 1488.07,1221.84C1487.96,1222.26 1487.89,1222.59 1487.89,1222.59C1487.89,1222.59 1487.71,1220.1 1487.71,1219.36C1487.71,1216.29 1487.09,1211.22 1487.33,1207.19C1487.46,1204.97 1487.85,1202.95 1488.42,1201.26C1488.44,1199.86 1488.52,1197.2 1488.87,1196.1C1488.98,1195.74 1489.11,1195.39 1489.26,1195.05C1489.3,1194.1 1489.39,1192.6 1489.52,1191.76C1489.83,1189.67 1490.56,1187.96 1491.36,1186.76C1492.6,1184.93 1494.14,1183.68 1495.98,1183C1496.49,1181.99 1497.13,1181.14 1497.8,1180.47C1502.51,1175.76 1509.55,1176.52 1514.58,1179.03C1518.51,1180.99 1523.08,1184.62 1527.94,1187.05C1531.81,1188.98 1535.02,1192.71 1538.8,1194.6C1542.49,1196.44 1547.6,1199.21 1550.56,1202.17C1552.47,1204.08 1555.33,1205 1557.93,1206.31C1561.11,1207.91 1564.11,1209.75 1566.52,1212.15C1569.48,1215.12 1574.78,1218.95 1578.74,1220.94C1590.58,1226.86 1599.85,1237 1611.6,1242.87C1617.32,1245.73 1623.2,1248.27 1627.34,1250.34C1628.74,1251.04 1632.89,1255.05 1634.05,1258.54C1635.51,1262.9 1634.19,1266.59 1631.79,1268.99C1628.85,1271.94 1625.18,1274.18 1621.23,1276.22C1617.37,1278.22 1613.09,1279.91 1609.85,1283.15C1608.61,1284.39 1607.12,1285.42 1605.54,1286.32C1604.93,1286.67 1604.2,1286.84 1603.72,1287.32C1601.85,1289.19 1599.45,1290.8 1596.8,1292.37C1594.47,1293.74 1591.81,1295.06 1589.65,1297.22C1585.85,1301.02 1579.46,1305.07 1574.19,1307.7C1572.25,1308.67 1568.57,1310.6 1567,1312.16C1565.07,1314.1 1562.51,1315.59 1559.72,1316.81C1558.17,1317.5 1556.35,1317.78 1555.29,1318.84C1554.17,1319.96 1552.82,1320.89 1551.28,1321.63C1550.16,1322.17 1547.85,1323.02 1547.29,1323.23C1545.65,1324.51 1542.89,1325.83 1541.91,1326.28C1539.2,1328.66 1534.7,1330.99 1532.05,1332.31C1525.55,1335.56 1519.32,1338.98 1513.27,1342.02C1512.87,1342.34 1511,1343.84 1509.53,1344.71C1509.53,1344.71 1505.06,1346.66 1504.05,1346.71C1502.51,1346.79 1501.2,1346.53 1500.09,1346.07C1499.86,1346.11 1499.65,1346.14 1499.45,1346.16C1495.78,1346.54 1493.06,1345.16 1491.28,1343.38C1488.79,1340.89 1487.05,1337.36 1486.24,1333.06C1485.12,1327.13 1485.91,1319.14 1485.91,1313.11C1485.91,1291.72 1487.24,1271.64 1487.24,1250.65L1487.24,1242.48C1487.24,1242.55 1487.25,1242.74 1487.25,1242.74C1487.25,1242.74 1487.29,1240.53 1487.46,1238.74ZM1618.83,1266.09C1619.04,1266.2 1619.22,1266.28 1619.34,1266.35C1619.17,1266.26 1619,1266.18 1618.83,1266.09ZM1504.05,1316.29C1503.93,1316.38 1503.82,1316.48 1503.72,1316.57C1503.71,1316.6 1503.71,1316.63 1503.71,1316.66C1503.82,1316.54 1503.93,1316.42 1504.05,1316.29ZM1509.53,1344.71C1509.32,1344.84 1509.11,1344.96 1508.92,1345.05C1509.03,1345 1509.53,1344.71 1509.53,1344.71Z" style="fill:white;"/>
                                    <path d="M1499.71,1229.65C1499.71,1224.71 1503.72,1220.7 1508.65,1220.7C1513.59,1220.7 1517.6,1224.71 1517.6,1229.65C1517.6,1235.34 1516.71,1242.3 1517.81,1248.09C1518.28,1250.51 1519.05,1254.1 1519.05,1256.38C1519.05,1261.32 1515.05,1265.33 1510.11,1265.33C1505.17,1265.33 1501.16,1261.32 1501.16,1256.38C1501.16,1255.02 1500.52,1252.9 1500.24,1251.45C1498.93,1244.6 1499.71,1236.38 1499.71,1229.65Z" style="fill:white;"/>
                                    <path d="M1586.51,1262.79C1583.02,1259.3 1583.02,1253.63 1586.51,1250.14C1590,1246.65 1595.67,1246.65 1599.16,1250.14C1600.38,1251.36 1603.19,1253.09 1604.91,1253.09C1609.85,1253.09 1613.86,1257.1 1613.86,1262.04C1613.86,1266.97 1609.85,1270.98 1604.91,1270.98C1599.56,1270.98 1590.31,1266.59 1586.51,1262.79Z" style="fill:white;"/>
                                    <path d="M1603.9,1234.4C1604.63,1234.62 1605.91,1235.02 1606.42,1235.26C1608,1236.03 1609.04,1237.03 1609.69,1237.84C1611.17,1239.68 1611.7,1241.64 1611.7,1243.53C1611.7,1248.47 1607.69,1252.48 1602.76,1252.48C1601.22,1252.48 1599.78,1252.09 1598.51,1251.41C1597.79,1251.17 1596.89,1250.87 1596.62,1250.74C1595.62,1250.24 1594.15,1250.03 1592.97,1250.03C1588.03,1250.03 1584.03,1246.02 1584.03,1241.08C1584.03,1236.14 1588.03,1232.14 1592.97,1232.14C1596.48,1232.14 1600.74,1232.99 1603.9,1234.4Z" style="fill:white;"/>
                                    <path d="M1518.7,1333.66C1518.7,1338.6 1514.69,1342.61 1509.75,1342.61C1504.81,1342.61 1500.8,1338.6 1500.8,1333.66L1500.8,1333.58C1500.8,1328.65 1504.81,1324.64 1509.75,1324.64C1514.69,1324.64 1518.7,1328.65 1518.7,1333.58L1518.7,1333.66Z" style="fill:white;"/>
                                </g>
                            </g>
                        </g>
                    </g>
                </g>
            </g>
        </g>
    </g>
</svg>
