<?xml version="1.0" encoding="UTF-8" standalone="no"?>
<!DOCTYPE svg PUBLIC "-//W3C//DTD SVG 1.1//EN" "http://www.w3.org/Graphics/SVG/1.1/DTD/svg11.dtd">
<svg width="100%" height="100%" viewBox="0 0 155 179" version="1.1" xmlns="http://www.w3.org/2000/svg" xmlns:xlink="http://www.w3.org/1999/xlink" xml:space="preserve" xmlns:serif="http://www.serif.com/" style="fill-rule:evenodd;clip-rule:evenodd;stroke-linecap:round;stroke-linejoin:round;stroke-miterlimit:1.5;">
    <g transform="matrix(1,0,0,1,-1312.58,-1005.88)">
        <g transform="matrix(1.87214e-16,0.966631,-1.11828,3.31328e-16,1996.27,769.345)">
            <path d="M333.866,478.103C334.482,477.18 335.622,476.612 336.854,476.612C338.087,476.612 339.226,477.18 339.842,478.103C353.704,498.872 411.656,585.701 425.51,606.459C426.126,607.381 426.126,608.517 425.51,609.44C424.893,610.362 423.755,610.93 422.523,610.93C394.807,610.93 278.902,610.93 251.186,610.93C249.954,610.93 248.815,610.362 248.199,609.44C247.583,608.517 247.582,607.381 248.198,606.459C262.053,585.701 320.005,498.872 333.866,478.103Z" style="fill:white;stroke:white;stroke-width:0.96px;"/>
        </g>
    </g>
</svg>
