<?xml version="1.0" encoding="UTF-8" standalone="no"?>
<!DOCTYPE svg PUBLIC "-//W3C//DTD SVG 1.1//EN" "http://www.w3.org/Graphics/SVG/1.1/DTD/svg11.dtd">
<svg width="100%" height="100%" viewBox="0 0 90 90" version="1.1" xmlns="http://www.w3.org/2000/svg" xmlns:xlink="http://www.w3.org/1999/xlink" xml:space="preserve" xmlns:serif="http://www.serif.com/" style="fill-rule:evenodd;clip-rule:evenodd;stroke-linecap:round;stroke-linejoin:round;stroke-miterlimit:1.5;">
    <g transform="matrix(1,0,0,1,-2025.04,-1035.83)">
        <g transform="matrix(1,0,0,1,-79.255,291.96)">
            <g transform="matrix(1.41034,0,0,1.23402,1246.51,-243.232)">
                <path d="M669.346,806.211C669.346,804.314 668.001,802.776 666.341,802.776L613.73,802.776C612.07,802.776 610.724,804.314 610.724,806.211L610.724,866.339C610.724,868.236 612.07,869.774 613.73,869.774L666.341,869.774C668.001,869.774 669.346,868.236 669.346,866.339L669.346,806.211Z" style="fill:none;stroke:white;stroke-width:5.35px;"/>
            </g>
            <g transform="matrix(1.08752,0,0,1.28752,1462.06,-313.918)">
                <clipPath id="_clip1">
                    <rect x="598.622" y="869.485" width="66.396" height="19.051"/>
                </clipPath>
                <g clip-path="url(#_clip1)">
                    <ellipse cx="631.82" cy="889.925" rx="33.198" ry="20.44" style="fill:white;"/>
                </g>
            </g>
            <g transform="matrix(2.49327,0,0,3.42562,347.098,-2177.11)">
                <ellipse cx="722.777" cy="862.85" rx="7.106" ry="5.172" style="fill:white;"/>
            </g>
            <path d="M2114.38,826.37C2114.35,826.435 2114.32,826.503 2114.27,826.565C2114.18,826.707 2114.04,826.847 2113.89,826.931C2113.82,826.97 2113.74,826.994 2113.66,827.016C2113.58,827.041 2113.49,827.064 2113.41,827.081" style="fill:none;stroke:white;stroke-width:1px;"/>
            <g transform="matrix(-1,0,0,1,4298.3,1.13687e-13)">
                <path d="M2114.38,826.37C2114.35,826.435 2114.32,826.503 2114.27,826.565C2114.18,826.707 2114.04,826.847 2113.89,826.931C2113.82,826.97 2113.74,826.994 2113.66,827.016C2113.58,827.041 2113.49,827.064 2113.41,827.081" style="fill:none;stroke:white;stroke-width:1px;"/>
            </g>
        </g>
    </g>
</svg>
