<?xml version="1.0" encoding="UTF-8" standalone="no"?>
<!DOCTYPE svg PUBLIC "-//W3C//DTD SVG 1.1//EN" "http://www.w3.org/Graphics/SVG/1.1/DTD/svg11.dtd">
<svg width="100%" height="100%" viewBox="0 0 63 76" version="1.1" xmlns="http://www.w3.org/2000/svg" xmlns:xlink="http://www.w3.org/1999/xlink" xml:space="preserve" xmlns:serif="http://www.serif.com/" style="fill-rule:evenodd;clip-rule:evenodd;stroke-linecap:round;stroke-linejoin:round;stroke-miterlimit:1.5;">
    <g transform="matrix(1,0,0,1,-741.604,-820.36)">
        <g>
            <g transform="matrix(1,0,0,0.881444,132.963,127.15)">
                <path d="M669.346,807.585C669.346,806.31 668.9,805.086 668.105,804.184C667.31,803.283 666.231,802.776 665.107,802.776C654.294,802.776 625.777,802.776 614.963,802.776C613.839,802.776 612.761,803.283 611.966,804.184C611.171,805.086 610.724,806.31 610.724,807.585C610.724,819.928 610.724,852.622 610.724,864.965C610.724,866.24 611.171,867.464 611.966,868.365C612.761,869.267 613.839,869.774 614.963,869.774C625.777,869.774 654.294,869.774 665.107,869.774C666.231,869.774 667.31,869.267 668.105,868.365C668.9,867.464 669.346,866.24 669.346,864.965C669.346,852.622 669.346,819.928 669.346,807.585Z" style="fill:none;stroke:white;stroke-width:4.42px;"/>
            </g>
            <g transform="matrix(0.805911,0,0,0.710365,257.171,258.532)">
                <clipPath id="_clip1">
                    <rect x="608.525" y="796.694" width="63.062" height="8.926"/>
                </clipPath>
                <g clip-path="url(#_clip1)">
                    <path d="M669.346,808.743C669.346,805.448 666.991,802.776 664.086,802.776C652.953,802.776 627.118,802.776 615.984,802.776C613.079,802.776 610.724,805.448 610.724,808.743C610.724,821.458 610.724,851.092 610.724,863.807C610.724,867.102 613.079,869.774 615.984,869.774C627.118,869.774 652.953,869.774 664.086,869.774C666.991,869.774 669.346,867.102 669.346,863.807C669.346,851.092 669.346,821.458 669.346,808.743Z" style="fill:none;stroke:white;stroke-width:5.49px;"/>
                </g>
            </g>
            <g transform="matrix(0.604433,0,0,0.532774,386.189,394.745)">
                <clipPath id="_clip2">
                    <rect x="607.658" y="794.789" width="64.593" height="11.801"/>
                </clipPath>
                <g clip-path="url(#_clip2)">
                    <path d="M669.346,810.732C669.346,806.338 666.206,802.776 662.333,802.776C651.055,802.776 629.015,802.776 617.738,802.776C613.864,802.776 610.724,806.338 610.724,810.732C610.724,823.623 610.724,848.927 610.724,861.817C610.724,866.212 613.864,869.774 617.738,869.774C629.015,869.774 651.055,869.774 662.333,869.774C666.206,869.774 669.346,866.212 669.346,861.817C669.346,848.927 669.346,823.623 669.346,810.732Z" style="fill:none;stroke:white;stroke-width:7.31px;"/>
                </g>
            </g>
        </g>
    </g>
</svg>
