<?xml version="1.0" encoding="UTF-8" standalone="no"?>
<!DOCTYPE svg PUBLIC "-//W3C//DTD SVG 1.1//EN" "http://www.w3.org/Graphics/SVG/1.1/DTD/svg11.dtd">
<svg width="100%" height="100%" viewBox="0 0 181 117" version="1.1" xmlns="http://www.w3.org/2000/svg" xmlns:xlink="http://www.w3.org/1999/xlink" xml:space="preserve" xmlns:serif="http://www.serif.com/" style="fill-rule:evenodd;clip-rule:evenodd;stroke-linecap:round;stroke-linejoin:round;stroke-miterlimit:1.5;">
    <g transform="matrix(1,0,0,1,-826.248,-427.015)">
        <g transform="matrix(-4.9151e-17,-0.629298,0.672022,-1.17539e-16,595.899,697.166)">
            <path d="M325.574,490.527C328.005,486.885 332.268,484.673 336.854,484.673C341.441,484.673 345.703,486.885 348.134,490.527C366.393,517.884 402.087,571.364 419.075,596.816C420.973,599.66 421.073,603.244 419.337,606.177C417.601,609.11 414.302,610.93 410.721,610.93C375.677,610.93 298.032,610.93 262.987,610.93C259.406,610.93 256.107,609.11 254.371,606.177C252.635,603.244 252.736,599.66 254.634,596.816C271.621,571.364 307.316,517.884 325.574,490.527Z" style="fill:white;stroke:white;stroke-width:1.54px;"/>
        </g>
        <g transform="matrix(-4.9151e-17,-0.629298,0.672022,-1.17539e-16,508.461,697.166)">
            <path d="M325.574,490.527C328.005,486.885 332.268,484.673 336.854,484.673C341.441,484.673 345.703,486.885 348.134,490.527C366.393,517.884 402.087,571.364 419.075,596.816C420.973,599.66 421.073,603.244 419.337,606.177C417.601,609.11 414.302,610.93 410.721,610.93C375.677,610.93 298.032,610.93 262.987,610.93C259.406,610.93 256.107,609.11 254.371,606.177C252.635,603.244 252.736,599.66 254.634,596.816C271.621,571.364 307.316,517.884 325.574,490.527Z" style="fill:white;stroke:white;stroke-width:1.54px;"/>
        </g>
    </g>
</svg>
