<?xml version="1.0" encoding="UTF-8" standalone="no"?>
<!DOCTYPE svg PUBLIC "-//W3C//DTD SVG 1.1//EN" "http://www.w3.org/Graphics/SVG/1.1/DTD/svg11.dtd">
<svg width="100%" height="100%" viewBox="0 0 133 135" version="1.1" xmlns="http://www.w3.org/2000/svg" xmlns:xlink="http://www.w3.org/1999/xlink" xml:space="preserve" xmlns:serif="http://www.serif.com/" style="fill-rule:evenodd;clip-rule:evenodd;stroke-linecap:round;stroke-linejoin:round;stroke-miterlimit:1.5;">
    <g transform="matrix(1,0,0,1,-671.394,-832.668)">
        <g>
            <g transform="matrix(1,0,0,0.881444,62.7533,127.15)">
                <path d="M669.346,807.585C669.346,806.31 668.9,805.086 668.105,804.184C667.31,803.283 666.231,802.776 665.107,802.776C654.294,802.776 625.777,802.776 614.963,802.776C613.839,802.776 612.761,803.283 611.966,804.184C611.171,805.086 610.724,806.31 610.724,807.585C610.724,819.928 610.724,852.622 610.724,864.965C610.724,866.24 611.171,867.464 611.966,868.365C612.761,869.267 613.839,869.774 614.963,869.774C625.777,869.774 654.294,869.774 665.107,869.774C666.231,869.774 667.31,869.267 668.105,868.365C668.9,867.464 669.346,866.24 669.346,864.965C669.346,852.622 669.346,819.928 669.346,807.585Z" style="fill:none;stroke:white;stroke-width:4.42px;"/>
            </g>
            <g transform="matrix(1,0,0,0.881444,132.963,127.15)">
                <path d="M669.346,807.585C669.346,806.31 668.9,805.086 668.105,804.184C667.31,803.283 666.231,802.776 665.107,802.776C654.294,802.776 625.777,802.776 614.963,802.776C613.839,802.776 612.761,803.283 611.966,804.184C611.171,805.086 610.724,806.31 610.724,807.585C610.724,819.928 610.724,852.622 610.724,864.965C610.724,866.24 611.171,867.464 611.966,868.365C612.761,869.267 613.839,869.774 614.963,869.774C625.777,869.774 654.294,869.774 665.107,869.774C666.231,869.774 667.31,869.267 668.105,868.365C668.9,867.464 669.346,866.24 669.346,864.965C669.346,852.622 669.346,819.928 669.346,807.585Z" style="fill:none;stroke:white;stroke-width:4.42px;"/>
            </g>
            <g transform="matrix(1,0,0,0.881444,62.7533,198.416)">
                <path d="M669.346,807.585C669.346,806.31 668.9,805.086 668.105,804.184C667.31,803.283 666.231,802.776 665.107,802.776C654.294,802.776 625.777,802.776 614.963,802.776C613.839,802.776 612.761,803.283 611.966,804.184C611.171,805.086 610.724,806.31 610.724,807.585C610.724,819.928 610.724,852.622 610.724,864.965C610.724,866.24 611.171,867.464 611.966,868.365C612.761,869.267 613.839,869.774 614.963,869.774C625.777,869.774 654.294,869.774 665.107,869.774C666.231,869.774 667.31,869.267 668.105,868.365C668.9,867.464 669.346,866.24 669.346,864.965C669.346,852.622 669.346,819.928 669.346,807.585Z" style="fill:none;stroke:white;stroke-width:4.42px;"/>
            </g>
            <g transform="matrix(1,0,0,0.881444,132.963,198.416)">
                <path d="M669.346,807.585C669.346,806.31 668.9,805.086 668.105,804.184C667.31,803.283 666.231,802.776 665.107,802.776C654.294,802.776 625.777,802.776 614.963,802.776C613.839,802.776 612.761,803.283 611.966,804.184C611.171,805.086 610.724,806.31 610.724,807.585C610.724,819.928 610.724,852.622 610.724,864.965C610.724,866.24 611.171,867.464 611.966,868.365C612.761,869.267 613.839,869.774 614.963,869.774C625.777,869.774 654.294,869.774 665.107,869.774C666.231,869.774 667.31,869.267 668.105,868.365C668.9,867.464 669.346,866.24 669.346,864.965C669.346,852.622 669.346,819.928 669.346,807.585Z" style="fill:none;stroke:white;stroke-width:4.42px;"/>
            </g>
        </g>
    </g>
</svg>
