<?xml version="1.0" encoding="UTF-8" standalone="no"?>
<!DOCTYPE svg PUBLIC "-//W3C//DTD SVG 1.1//EN" "http://www.w3.org/Graphics/SVG/1.1/DTD/svg11.dtd">
<svg width="100%" height="100%" viewBox="0 0 129 91" version="1.1" xmlns="http://www.w3.org/2000/svg" xmlns:xlink="http://www.w3.org/1999/xlink" xml:space="preserve" xmlns:serif="http://www.serif.com/" style="fill-rule:evenodd;clip-rule:evenodd;stroke-linecap:round;stroke-linejoin:round;stroke-miterlimit:1.5;">
    <g transform="matrix(1,0,0,1,-621.714,-648.264)">
        <g transform="matrix(0.970632,0,0,0.970632,-4.18314,11.5008)">
            <g>
                <g transform="matrix(5.17003e-17,0.257768,-0.275268,8.18559e-17,892.681,593.336)">
                    <path d="M308.483,516.135C314.597,506.975 325.319,501.41 336.854,501.41C348.39,501.41 359.112,506.975 365.226,516.135C377.919,535.153 392.713,557.318 404.802,575.431C409.576,582.584 409.828,591.599 405.462,598.976C401.096,606.353 392.798,610.93 383.791,610.93C355.269,610.93 318.439,610.93 289.917,610.93C280.91,610.93 272.613,606.353 268.246,598.976C263.88,591.599 264.133,582.584 268.907,575.431C280.996,557.318 295.79,535.153 308.483,516.135Z" style="fill:white;stroke:white;stroke-width:3.86px;"/>
                </g>
                <g transform="matrix(5.21903,0,0,7.24041,-2680.57,-599.175)">
                    <path d="M654.399,175.954C654.966,175.946 655.435,176.272 655.446,176.681C655.456,177.09 655.005,177.428 654.437,177.436C650.382,177.49 654.487,177.471 644.206,177.436C642.16,177.429 640.927,177.761 640.214,178.337C639.704,178.749 639.478,179.268 639.36,179.799C639.218,180.431 639.231,181.086 639.225,181.664C639.22,182.073 638.756,182.402 638.188,182.399C637.621,182.396 637.164,182.061 637.168,181.652C637.184,180.264 637.224,178.527 638.679,177.351C639.68,176.542 641.347,175.944 644.216,175.954C654.448,175.989 650.363,176.008 654.399,175.954Z" style="fill:white;"/>
                </g>
            </g>
            <g transform="matrix(-1,0,0,-1,1422.09,1404.92)">
                <g transform="matrix(5.17003e-17,0.257768,-0.275268,8.18559e-17,892.681,593.336)">
                    <path d="M308.483,516.135C314.597,506.975 325.319,501.41 336.854,501.41C348.39,501.41 359.112,506.975 365.226,516.135C377.919,535.153 392.713,557.318 404.802,575.431C409.576,582.584 409.828,591.599 405.462,598.976C401.096,606.353 392.798,610.93 383.791,610.93C355.269,610.93 318.439,610.93 289.917,610.93C280.91,610.93 272.613,606.353 268.246,598.976C263.88,591.599 264.133,582.584 268.907,575.431C280.996,557.318 295.79,535.153 308.483,516.135Z" style="fill:white;stroke:white;stroke-width:3.86px;"/>
                </g>
                <g transform="matrix(5.21903,0,0,7.24041,-2680.57,-599.175)">
                    <path d="M654.399,175.954C654.966,175.946 655.435,176.272 655.446,176.681C655.456,177.09 655.005,177.428 654.437,177.436C650.382,177.49 654.487,177.471 644.206,177.436C642.16,177.429 640.927,177.761 640.214,178.337C639.704,178.749 639.478,179.268 639.36,179.799C639.218,180.431 639.231,181.086 639.225,181.664C639.22,182.073 638.756,182.402 638.188,182.399C637.621,182.396 637.164,182.061 637.168,181.652C637.184,180.264 637.224,178.527 638.679,177.351C639.68,176.542 641.347,175.944 644.216,175.954C654.448,175.989 650.363,176.008 654.399,175.954Z" style="fill:white;"/>
                </g>
            </g>
        </g>
    </g>
</svg>
