<?xml version="1.0" encoding="UTF-8" standalone="no"?>
<!DOCTYPE svg PUBLIC "-//W3C//DTD SVG 1.1//EN" "http://www.w3.org/Graphics/SVG/1.1/DTD/svg11.dtd">
<svg width="100%" height="100%" viewBox="0 0 1182 1182" version="1.1" xmlns="http://www.w3.org/2000/svg" xmlns:xlink="http://www.w3.org/1999/xlink" xml:space="preserve" xmlns:serif="http://www.serif.com/" style="fill-rule:evenodd;clip-rule:evenodd;stroke-linejoin:round;stroke-miterlimit:2;">
    <rect id="Artboard1" x="0" y="0" width="1181.1" height="1181.1" style="fill:none;"/>
    <g id="Artboard11" serif:id="Artboard1">
        <g>
            <g transform="matrix(1.93473,0,0,2.25549,-495.933,-449.186)">
                <path d="M743.728,604.637C745.792,605.229 747.398,606.637 748.043,608.42C748.688,610.202 748.293,612.142 746.983,613.633C708.785,656.409 648.034,684.095 579.668,684.095C464.184,684.095 370.426,605.095 370.426,507.789C370.426,410.482 464.184,331.482 579.668,331.482C646.889,331.482 706.749,358.249 745.042,399.812C746.796,401.748 747.366,404.287 746.574,406.643C745.782,408.999 743.724,410.888 741.037,411.726C694.58,426.083 661.388,463.695 661.388,507.789C661.388,552.727 695.865,590.934 743.728,604.637Z" style="fill:white;"/>
            </g>
            <g transform="matrix(-0.870603,-1.00749,1.66013,-1.43458,219.366,1075.52)">
                <path d="M336.189,305.554C313.592,323.705 240.267,379.844 240.267,419.904C240.267,440.491 267.808,457.204 301.731,457.204C335.654,457.204 363.195,440.491 363.195,419.904C363.195,379.844 322.28,332.492 336.189,305.554Z" style="fill:white;"/>
            </g>
        </g>
    </g>
</svg>
