<?xml version="1.0" encoding="UTF-8" standalone="no"?>
<!DOCTYPE svg PUBLIC "-//W3C//DTD SVG 1.1//EN" "http://www.w3.org/Graphics/SVG/1.1/DTD/svg11.dtd">
<svg width="100%" height="100%" viewBox="0 0 91 96" version="1.1" xmlns="http://www.w3.org/2000/svg" xmlns:xlink="http://www.w3.org/1999/xlink" xml:space="preserve" xmlns:serif="http://www.serif.com/" style="fill-rule:evenodd;clip-rule:evenodd;stroke-linecap:round;stroke-linejoin:round;stroke-miterlimit:1.5;">
    <g transform="matrix(1,0,0,1,-660.875,-785.305)">
        <g>
            <g transform="matrix(0.506808,0,0,0.619842,357.993,281.699)">
                <ellipse cx="683.303" cy="882.528" rx="81.566" ry="66.692" style="fill:none;stroke:white;stroke-width:7.36px;"/>
            </g>
            <g transform="matrix(0.448628,0,0,2.68876,418.569,-1574.97)">
                <path d="M721.233,908.472C722.481,908.666 726.773,909.376 741.455,911.935C743.227,912.243 743.164,912.734 741.312,913.03C739.461,913.326 736.519,913.315 734.747,913.006C719.154,910.289 715.403,909.661 715.403,909.661C715.403,909.661 715.412,909.662 715.428,909.663C714.399,909.497 710.439,908.824 695.243,906.154C693.478,905.844 693.554,905.353 695.412,905.059C697.271,904.764 700.213,904.777 701.978,905.087C717.646,907.84 721.433,908.492 721.433,908.492C721.433,908.492 721.355,908.484 721.233,908.472ZM722.023,909.464C722.596,909.338 722.927,909.229 722.927,909.229C722.927,909.229 722.572,909.338 722.023,909.464ZM716.41,908.369C716.09,908.395 715.801,908.425 715.536,908.46C714.769,908.558 713.833,908.914 713.833,908.914C713.833,908.914 715.097,908.487 716.41,908.369Z" style="fill:white;"/>
            </g>
        </g>
    </g>
</svg>
