<?xml version="1.0" encoding="UTF-8" standalone="no"?>
<!DOCTYPE svg PUBLIC "-//W3C//DTD SVG 1.1//EN" "http://www.w3.org/Graphics/SVG/1.1/DTD/svg11.dtd">
<svg width="100%" height="100%" viewBox="0 0 142 115" version="1.1" xmlns="http://www.w3.org/2000/svg" xmlns:xlink="http://www.w3.org/1999/xlink" xml:space="preserve" xmlns:serif="http://www.serif.com/" style="fill-rule:evenodd;clip-rule:evenodd;stroke-linecap:round;stroke-linejoin:round;stroke-miterlimit:1.5;">
    <g transform="matrix(1,0,0,1,-621.714,-533.115)">
        <g>
            <g transform="matrix(5.17003e-17,0.257768,-0.275268,8.18559e-17,893.075,470.407)">
                <path d="M309.316,514.887C315.25,505.995 325.657,500.594 336.854,500.594C348.051,500.594 358.458,505.995 364.392,514.887C377.511,534.541 393.02,557.779 405.498,576.474C410.131,583.416 410.377,592.166 406.139,599.327C401.9,606.487 393.846,610.93 385.104,610.93L288.605,610.93C279.862,610.93 271.808,606.487 267.57,599.327C263.332,592.166 263.577,583.416 268.211,576.474C280.688,557.779 296.198,534.541 309.316,514.887Z" style="fill:white;stroke:white;stroke-width:3.75px;"/>
            </g>
            <g transform="matrix(5.17003e-17,0.257768,-0.275268,8.18559e-17,893.075,537.035)">
                <path d="M309.316,514.887C315.25,505.995 325.657,500.594 336.854,500.594C348.051,500.594 358.458,505.995 364.392,514.887C377.511,534.541 393.02,557.779 405.498,576.474C410.131,583.416 410.377,592.166 406.139,599.327C401.9,606.487 393.846,610.93 385.104,610.93C355.971,610.93 317.737,610.93 288.605,610.93C279.862,610.93 271.808,606.487 267.57,599.327C263.332,592.166 263.577,583.416 268.211,576.474C280.688,557.779 296.198,534.541 309.316,514.887Z" style="fill:white;stroke:white;stroke-width:3.75px;"/>
            </g>
            <g transform="matrix(4.46776,0,0,-4.46776,-807.604,1417.19)">
                <path d="M340.163,178.904C340.326,178.826 340.385,178.701 341.674,178.733C342.781,178.76 344.575,178.805 347.517,178.812C348.16,178.814 348.684,178.293 348.686,177.649C348.687,177.006 348.166,176.482 347.523,176.481C344.607,176.474 342.829,176.429 341.731,176.402C340.006,176.359 339.469,176.657 339.383,176.714C339.016,176.854 338.424,177.295 337.767,178.07C336.607,179.439 334.867,181.971 333.034,184.494C331.519,186.578 329.941,188.658 328.585,190.013C328.181,190.417 327.802,190.752 327.452,190.989C327.253,191.124 327.088,191.239 326.931,191.251C326.849,191.258 326.979,191.279 321.077,191.315C320.433,191.319 319.914,191.844 319.918,192.487C319.922,193.131 320.447,193.65 321.091,193.646C327.169,193.61 327.035,193.582 327.119,193.575C327.666,193.531 328.336,193.252 329.055,192.708C330.278,191.782 331.8,190.01 333.338,187.995C335.525,185.131 337.772,181.773 339.257,179.927C339.666,179.419 340.223,178.879 340.223,178.879C340.223,178.879 340.195,178.891 340.163,178.904Z" style="fill:white;"/>
            </g>
            <g transform="matrix(4.46776,0,0,4.46776,-807.604,-236.064)">
                <path d="M339.383,176.714C339.469,176.657 340.006,176.359 341.731,176.402C342.829,176.429 344.607,176.474 347.523,176.481C348.166,176.482 348.687,177.006 348.686,177.649C348.684,178.293 348.16,178.814 347.517,178.812C344.575,178.805 342.781,178.76 341.674,178.733C340.385,178.701 340.326,178.826 340.163,178.904C340.195,178.891 340.223,178.879 340.223,178.879C340.223,178.879 339.666,179.419 339.257,179.927C337.772,181.773 335.525,185.131 333.338,187.995C331.8,190.01 330.278,191.782 329.055,192.708C328.336,193.252 327.666,193.531 327.119,193.575C327.035,193.582 327.169,193.61 321.091,193.646C320.447,193.65 319.922,193.131 319.918,192.487C319.914,191.844 320.433,191.319 321.077,191.315C326.979,191.279 326.849,191.258 326.931,191.251C327.088,191.239 327.253,191.124 327.452,190.989C327.802,190.752 328.181,190.417 328.585,190.013C329.941,188.658 331.519,186.578 333.034,184.494C334.867,181.971 336.607,179.439 337.767,178.07C338.424,177.295 339.016,176.854 339.383,176.714Z" style="fill:white;"/>
            </g>
        </g>
    </g>
</svg>
