<?xml version="1.0" encoding="UTF-8" standalone="no"?>
<!DOCTYPE svg PUBLIC "-//W3C//DTD SVG 1.1//EN" "http://www.w3.org/Graphics/SVG/1.1/DTD/svg11.dtd">
<svg width="100%" height="100%" viewBox="0 0 55 88" version="1.1" xmlns="http://www.w3.org/2000/svg" xmlns:xlink="http://www.w3.org/1999/xlink" xml:space="preserve" xmlns:serif="http://www.serif.com/" style="fill-rule:evenodd;clip-rule:evenodd;stroke-linejoin:round;stroke-miterlimit:2;">
    <g transform="matrix(1,0,0,1,-699.053,-762.728)">
        <g transform="matrix(1,0,0,1,-20.9831,-3.66388)">
            <path d="M742.226,826.674C742.275,819.987 742.607,789.62 742.417,772.5C742.413,772.182 742.472,771.664 743.058,771.25C743.132,771.197 743.514,771.002 744.206,770.85C747.793,770.063 766.063,766.949 772.637,766.397C773.057,766.362 773.473,766.505 773.782,766.791C774.091,767.078 774.266,767.482 774.262,767.903C774.231,771.993 774.678,782.988 774.398,787.331C774.321,788.521 774.123,789.332 773.953,789.645C773.652,790.195 773.227,790.403 772.879,790.485C770.711,790.994 753.627,793.024 752.567,793.318C751.4,793.642 750.586,794.489 750.258,795.155C750.244,795.234 750.135,795.83 750.086,796.379C749.909,798.349 749.836,801.784 749.813,805.95C749.736,820.14 750.221,842.638 749.492,845.731C748.787,848.719 746.76,850.711 744.138,851.978C740.611,853.684 735.964,854.027 732.606,853.965C730.52,853.927 728.356,853.666 726.493,852.658C722.119,850.294 719.77,845.852 720.06,840.615C720.614,830.597 728.586,829.198 733.037,828.47C738.088,827.644 741.009,826.976 742.226,826.674ZM771.362,787.721C771.717,784.549 771.335,774.693 771.27,769.547C764.189,770.332 749.668,772.798 745.429,773.659C745.604,792.204 745.226,824.35 745.22,827.719C745.22,827.962 745.241,828.75 744.098,829.249C743.417,829.546 740.976,830.211 733.521,831.431C730.007,832.006 723.493,832.87 723.055,840.781C722.834,844.786 724.575,848.211 727.92,850.019C729.361,850.799 731.048,850.936 732.661,850.966C735.148,851.012 738.437,850.841 741.278,849.901C743.776,849.074 745.954,847.66 746.572,845.042C747.393,841.561 746.566,813.12 746.888,800.458C746.977,796.944 747.235,794.533 747.526,793.915C748.106,792.682 749.581,791.033 751.765,790.427C752.743,790.156 767.282,788.405 771.362,787.721Z" style="fill:white;"/>
            <path d="M748.245,772.608C749.033,772.288 749.832,771.943 750.654,771.8C750.89,771.759 751.486,771.596 751.886,771.601C752.042,771.551 752.197,771.499 752.352,771.447C752.549,771.381 752.867,771.295 753.224,771.228C753.494,771.152 753.917,771.042 754.181,771.011C754.913,770.925 755.654,770.83 756.398,770.819C756.848,770.749 757.297,770.679 757.744,770.605C757.82,770.565 757.902,770.528 757.993,770.496C758.012,770.489 758.041,770.482 758.078,770.475C758.078,770.475 758.464,770.352 758.499,770.343C758.746,770.281 759.001,770.176 759.262,770.112C760.274,769.863 761.315,769.666 762.318,769.415C762.392,769.397 763.328,769.289 763.515,769.285C764.092,769.272 764.458,769.505 764.689,769.792C765.233,769.736 765.777,769.674 766.319,769.603C766.488,769.581 766.663,769.555 766.84,769.529C767.036,769.484 767.231,769.438 767.422,769.39C767.615,769.342 767.948,769.232 768.157,769.218C768.277,769.211 768.39,769.215 768.495,769.229C768.674,769.073 768.986,768.806 769.17,768.683C769.436,768.505 769.683,768.418 769.844,768.384C770.497,768.245 770.956,768.49 771.264,768.798C771.729,769.263 772.076,769.948 772.249,770.745C772.454,771.692 772.422,772.806 772.207,773.702C771.796,775.413 771.711,777.801 772.065,779.542C772.141,779.917 772.202,780.875 772.202,780.875C772.313,781.172 772.33,781.738 772.332,782.008C772.405,782.281 772.465,782.644 772.467,782.983C772.469,783.382 772.388,783.743 772.298,783.969C772.305,784.087 772.377,785.264 772.447,785.607C772.483,785.784 772.562,786.616 772.511,787.025C772.446,787.542 772.204,787.873 772.039,788.038C771.446,788.631 769.63,787.748 769.63,787.748C769.63,787.748 769.721,787.861 769.762,787.902C769.859,787.998 770.946,788.329 770.946,788.329L770.571,788.415C769.973,788.607 769.292,788.621 768.71,788.82C768.586,788.863 767.897,789.014 767.539,788.99C767.421,788.982 767.311,788.963 767.21,788.937C766.609,789.061 765.999,789.225 765.389,789.382L765.391,789.433L765.839,789.365C765.839,789.365 765.211,789.534 764.928,789.534C764.875,789.534 764.817,789.535 764.758,789.538C764.617,789.569 764.474,789.601 764.339,789.647C764.146,789.713 763.75,789.735 763.548,789.741C763.527,789.745 763.514,789.747 763.514,789.747L763.425,789.744C763.425,789.744 763.459,789.744 763.514,789.742L763.484,789.498C762.355,789.647 761.217,789.722 760.079,789.722C759.794,789.722 758.97,789.684 758.548,789.495C758.121,789.304 757.845,789.003 757.686,788.686C757.498,788.31 757.448,787.925 757.558,787.547C757.246,787.548 756.934,787.549 756.622,787.549C756.228,787.549 755.101,787.506 754.526,787.241C754.068,787.03 753.768,786.71 753.599,786.37C753.378,785.929 753.333,785.474 753.515,785.037C753.335,784.993 753.109,784.926 752.95,784.841C752.705,784.711 752.523,784.54 752.397,784.373C752.275,784.21 752.183,784.04 752.126,783.862C751.637,783.904 750.961,783.956 750.427,783.895C749.771,783.819 749.249,783.568 748.928,783.259C748.599,782.943 748.458,782.569 748.455,782.158C748.454,781.871 748.534,781.488 748.833,781.128C748.449,781.084 748.103,780.894 747.86,780.608C747.169,780.589 746.578,780.098 746.434,779.418C746.355,779.042 746.424,778.664 746.607,778.35C745.916,778.055 745.769,777.436 745.769,776.985C745.769,776.872 745.78,776.75 745.81,776.625C745.666,776.649 745.583,776.637 745.583,776.637L745.499,776.264C745.392,776.118 745.315,775.949 745.259,775.776C745.033,775.671 744.877,775.524 744.763,775.395C744.493,775.09 744.344,774.711 744.387,774.244C744.406,774.035 744.48,773.728 744.714,773.42C744.901,773.173 745.364,772.821 745.526,772.74C745.783,772.612 746.461,772.331 746.969,772.289C747.484,772.247 747.918,772.381 748.245,772.608ZM746.652,773.1C746.473,772.992 746.239,772.912 745.925,772.912C746.189,772.912 746.437,772.98 746.652,773.1ZM750.887,783.244C750.865,783.253 750.843,783.261 750.821,783.269C750.832,783.265 750.855,783.257 750.887,783.244ZM768.273,786.228C768.223,786.242 768.173,786.254 768.121,786.264C767.998,786.288 767.859,786.302 767.72,786.31C767.676,786.318 767.633,786.325 767.59,786.333L767.775,788.867C767.777,788.867 767.99,788.859 768.114,788.812C768.307,788.74 768.451,788.632 768.548,788.545C768.878,788.247 769.002,787.895 769.029,787.568C769.058,787.208 768.993,786.794 768.602,786.404C768.554,786.355 768.423,786.291 768.273,786.228ZM758.428,770.425C758.446,770.423 758.465,770.421 758.483,770.419C758.478,770.419 758.457,770.421 758.428,770.425Z" style="fill:white;"/>
            <path d="M747.549,778.216C747.81,777.969 748.11,777.851 748.419,777.816C748.76,777.777 749.225,777.801 749.691,778.267C749.906,778.481 750.159,778.869 750.165,779.447C750.169,779.775 749.974,780.617 749.974,780.617C749.903,781.017 749.816,781.408 749.712,781.794C749.999,781.755 750.373,781.724 750.598,781.767C751.092,781.861 751.419,782.12 751.624,782.411C751.788,782.414 751.964,782.441 752.151,782.499C752.608,782.642 753.457,783.31 753.605,783.458C753.943,783.796 754.338,784.098 754.741,784.378C754.965,784.289 755.188,784.2 755.412,784.111C755.506,784.074 756.235,783.837 756.432,783.834C756.996,783.823 757.344,784.077 757.544,784.278C757.909,784.642 758.167,785.168 757.914,785.855C758.117,785.95 758.284,786.072 758.416,786.204C758.438,786.226 758.459,786.248 758.48,786.27C758.669,786.226 758.845,786.191 758.845,786.191L759.131,789.163L759.713,789.046C759.713,789.046 759.202,789.257 758.781,789.396C758.606,789.494 758.402,789.6 758.254,789.65C757.505,789.907 756.439,790.25 755.454,790.249C755.123,790.248 754.799,790.213 754.49,790.138C754.156,790.335 753.793,790.446 753.384,790.55C753.265,790.727 753.081,790.911 752.782,791.061C752.556,791.174 752.229,791.263 751.847,791.271C751.558,791.277 751.188,791.219 751.002,791.219C750.836,791.219 750.631,791.215 750.404,791.213C750.439,791.503 750.39,791.805 750.25,792.08C750.25,792.08 750.091,792.359 750.053,792.513C749.957,792.896 749.702,793.617 749.389,794.104C749.123,794.519 748.79,794.806 748.488,794.957C748.231,795.086 747.977,795.143 747.728,795.13C747.725,795.136 747.722,795.142 747.719,795.147C747.683,795.229 747.64,795.303 747.591,795.371C747.106,796.122 746.341,796.042 746.341,796.042L744.841,794.53L744.841,793.927C744.841,793.515 744.919,793.155 744.919,792.758C744.919,792.231 744.612,791.317 744.624,790.618C744.634,790.062 744.776,789.58 745.03,789.195C744.958,789.001 744.931,788.795 744.943,788.579C744.944,788.553 744.947,788.526 744.949,788.498C744.819,788.283 744.757,788.053 744.742,787.819C744.73,787.614 744.754,787.392 744.847,787.163C744.846,786.995 744.87,786.821 744.921,786.642C744.964,786.491 745.052,786.323 745.159,786.155C744.954,785.898 744.831,785.573 744.831,785.218L744.831,784.302C744.831,784.02 744.863,783.672 744.875,783.329C744.88,783.201 744.906,783.074 744.873,782.978C744.771,782.68 744.724,782.352 744.712,782.012C744.705,781.808 744.73,781.595 744.694,781.409C744.389,779.811 744.609,778.238 744.609,776.653C744.609,775.825 745.281,775.153 746.109,775.153C746.937,775.153 747.609,775.825 747.609,776.653C747.609,777.175 747.576,777.696 747.549,778.216Z" style="fill:white;"/>
            <path d="M744.614,837.247C744.594,837.009 744.542,836.25 744.654,835.894C744.765,835.544 744.692,835.124 744.667,834.712C744.638,834.21 744.623,833.712 744.685,833.26C744.865,831.953 744.551,830.578 744.731,829.272C744.856,828.361 744.896,826.989 744.722,826.084C744.662,825.767 744.658,825.439 744.679,825.107C744.69,824.936 744.738,824.764 744.704,824.6C744.607,824.131 744.61,823.638 744.648,823.141C744.676,822.77 744.764,822.396 744.677,822.051C744.428,821.052 744.532,819.803 744.532,818.742C744.532,816.931 744.513,815.137 744.513,813.332C744.513,811.833 744.493,810.331 744.493,808.82C744.493,808.524 744.538,808.134 744.561,807.749C744.57,807.614 744.564,807.379 744.562,807.338C744.298,806.52 744.434,805.304 744.434,804.428C744.434,804.224 744.379,803.818 744.407,803.551C744.427,803.362 744.47,803.194 744.525,803.051C744.511,802.908 744.463,802.425 744.455,802.17C744.441,801.732 744.506,801.324 744.662,800.968C744.659,800.852 744.644,800.368 744.651,800.116C744.662,799.755 744.723,799.415 744.845,799.109C744.835,798.956 744.81,798.545 744.822,798.328C744.841,798.008 744.912,797.708 745.039,797.439C745.047,797.391 745.089,797.148 745.1,796.995C745.138,796.454 745.115,795.851 745.115,795.518C745.115,794.691 745.787,794.018 746.615,794.018C747.443,794.018 748.115,794.691 748.115,795.518C748.115,795.974 748.142,796.863 748.059,797.563C748.013,797.948 747.928,798.292 747.821,798.562C747.831,798.713 747.856,799.125 747.844,799.342C747.827,799.64 747.765,799.92 747.654,800.174C747.658,800.292 747.673,800.775 747.665,801.028C747.654,801.401 747.589,801.752 747.458,802.067C747.473,802.213 747.519,802.689 747.528,802.941C747.54,803.294 747.499,803.628 747.402,803.93C747.414,804.074 747.434,804.33 747.434,804.428C747.434,804.813 747.39,805.275 747.375,805.729C747.367,805.972 747.348,806.213 747.413,806.402C747.63,807.038 747.493,808.142 747.493,808.82C747.493,810.331 747.513,811.833 747.513,813.332C747.513,815.137 747.532,816.931 747.532,818.742C747.532,819.569 747.393,820.545 747.588,821.323C747.708,821.804 747.718,822.31 747.683,822.824C747.656,823.219 747.565,823.621 747.642,823.995C747.709,824.317 747.715,824.651 747.695,824.988C747.684,825.167 747.636,825.349 747.669,825.52C747.895,826.701 747.866,828.492 747.703,829.68C747.524,830.986 747.837,832.361 747.658,833.668C747.594,834.133 747.679,834.667 747.695,835.178C747.711,835.695 747.678,836.196 747.557,836.651C747.576,836.883 747.63,837.685 747.503,838.055C747.384,838.405 747.383,838.962 747.383,839.334C747.383,840.161 746.711,840.834 745.883,840.834C745.056,840.834 744.383,840.161 744.383,839.334C744.383,838.732 744.442,837.864 744.614,837.247Z" style="fill:white;"/>
            <path d="M727.169,831.034C727.659,830.911 728.167,830.845 728.665,830.77C730.176,830.542 731.704,830.381 733.235,830.308C733.475,830.281 733.714,830.255 733.954,830.231C734.167,830.209 735.188,830.032 735.701,830.067C736.002,830.088 736.252,830.164 736.452,830.262L736.846,830.262C736.855,830.262 736.907,830.267 736.982,830.275C737.243,830.211 737.505,830.149 737.767,830.088C738.581,829.9 739.376,829.643 740.193,829.52C740.36,829.489 740.847,829.402 741.067,829.412C741.55,829.435 741.89,829.636 742.1,829.827C742.651,829.538 743.156,829.19 743.58,828.765C744.166,828.18 745.116,828.18 745.702,828.765C746.287,829.351 746.287,830.301 745.702,830.887C745.526,831.063 745.34,831.23 745.146,831.39C745.081,831.657 744.924,831.946 744.587,832.203C744.496,832.272 743.817,832.545 743.54,832.614C743.482,832.629 743.424,832.643 743.366,832.657L743.749,832.657C745.238,832.657 744.455,834.412 744.004,835.237C744.049,835.359 744.076,835.487 744.086,835.619L744.102,835.617C744.102,835.617 744.096,835.619 744.086,835.621C744.092,835.713 744.091,835.807 744.081,835.904C744.073,835.99 744.057,836.098 744.02,836.218C744.382,836.314 744.636,836.494 744.79,836.649C745.234,837.092 745.341,837.604 745.159,838.171C745.117,838.3 745.037,838.52 744.836,838.735C744.874,838.793 744.907,838.851 744.935,838.907C745.14,839.316 745.331,840.049 744.583,840.712C744.512,840.775 744.38,840.877 744.192,840.968C744.111,841.008 743.998,841.052 743.888,841.091C744.162,841.4 744.263,841.746 744.259,842.101C744.255,842.366 744.199,842.784 743.817,843.151C744.36,843.337 744.662,843.694 744.81,843.99C745.035,844.44 745.054,844.918 744.768,845.416C744.675,845.577 744.481,845.868 744.04,846.062C743.967,846.094 743.798,846.137 743.59,846.183C743.71,846.621 743.635,847.076 743.302,847.517C743.252,847.584 743.189,847.655 743.114,847.726C743.586,848.116 743.681,848.582 743.661,848.97C743.644,849.292 743.539,849.641 743.219,849.961C743.01,850.17 742.691,850.366 742.279,850.477C742.103,850.524 741.728,850.593 741.637,850.609C741.18,850.819 740.695,850.869 740.164,850.869C739.337,850.869 738.664,850.197 738.664,849.369C738.664,849.179 738.7,848.997 738.765,848.829C738.533,848.442 738.429,848.008 738.518,847.526C738.174,847.413 737.568,847.2 737.391,847.048C736.939,846.659 736.822,846.194 736.839,845.792C736.843,845.684 736.858,845.572 736.886,845.46C736.468,845.357 736.03,845.224 735.811,845.078C735.412,844.813 735.212,844.475 735.119,844.177C734.998,843.793 735.01,843.394 735.215,842.983C735.336,842.742 735.521,842.511 735.771,842.316C735.757,842.286 735.745,842.257 735.734,842.231C735.575,841.825 735.541,841.392 735.782,840.963C735.359,840.936 734.956,840.902 734.824,840.864C734.306,840.716 734.069,840.408 733.959,840.246C733.622,839.75 733.6,839.242 733.858,838.726C733.996,838.451 734.254,838.142 734.678,837.917C734.829,837.837 735.033,837.764 735.248,837.7C735.256,837.5 735.308,837.298 735.408,837.094C735.358,837.071 735.318,837.049 735.288,837.031C734.955,836.833 734.769,836.587 734.666,836.344C734.506,836.362 734.346,836.38 734.186,836.399C733.665,836.458 733.14,836.521 732.619,836.581C732.64,836.579 732.7,836.569 732.7,836.569C732.7,836.569 731.796,836.661 731.551,836.587C731.271,836.502 731.059,836.357 730.898,836.197C730.524,835.822 730.42,835.399 730.468,834.969C730.475,834.911 730.486,834.822 730.513,834.716C730.101,834.785 728.999,835.046 728.385,834.999C727.8,834.955 727.378,834.716 727.12,834.458C726.996,834.335 726.899,834.205 726.827,834.07C726.642,834.033 726.497,833.973 726.401,833.922C725.781,833.599 725.585,833.088 725.585,832.58C725.585,832.325 725.633,831.507 726.586,831.162C726.661,831.135 727.03,831.062 727.169,831.034Z" style="fill:white;"/>
            <path d="M742.22,836.496C741.952,836.423 741.729,836.28 741.547,836.098C741.357,835.908 741.087,835.555 741.101,834.967C741.107,834.745 741.372,833.905 741.414,833.773C741.479,833.568 741.54,833.348 741.603,833.123C741.36,832.584 741.452,831.93 741.879,831.478C741.897,831.448 741.97,831.33 742.063,831.189C742.142,830.847 742.303,830.562 742.533,830.332C743.087,829.778 743.617,829.848 743.895,829.899C744.292,829.971 744.633,830.174 744.882,830.55C745.004,830.732 745.173,831.072 745.132,831.55C745.12,831.693 745.063,831.884 744.986,832.074C744.96,832.362 744.911,832.734 744.817,832.922C744.804,832.947 744.792,832.973 744.78,833C744.835,833.043 744.888,833.09 744.94,833.141C745.119,833.314 745.476,833.727 745.476,834.676C745.476,834.898 745.492,835.148 745.459,835.366C745.423,835.604 745.403,835.851 745.367,836.091C745.236,836.986 744.931,837.828 744.654,838.679L745.639,839.944L747.087,838.838L747.019,839.155C747.012,839.675 746.866,840.254 746.761,840.765C746.626,841.418 746.478,842.088 746.324,842.744C746.644,842.975 746.929,843.131 746.929,843.131C746.929,843.131 748.431,840.269 748.429,841.64C748.429,841.739 748.395,842.243 748.31,842.492C748.194,842.831 748.068,843.28 747.876,843.599C747.669,843.942 747.472,844.318 747.281,844.698C747.279,844.714 747.277,844.73 747.274,844.749L747.276,844.747C747.276,844.747 747.274,844.76 747.269,844.782C747.228,845.065 747.139,845.591 747.015,845.84C746.772,846.325 746.54,846.765 746.239,847.223C746.193,847.293 745.948,847.568 745.684,847.811C745.6,847.94 745.519,848.069 745.442,848.197C745.224,848.559 744.852,848.901 744.561,849.191C744.545,849.208 744.507,849.25 744.472,849.29C744.423,849.36 744.367,849.427 744.304,849.489C743.563,850.231 742.871,849.921 742.823,849.908C742.383,849.791 742.075,849.53 741.878,849.15C741.763,848.927 741.648,848.6 741.742,848.151C741.761,848.058 741.798,847.912 741.896,847.735C741.91,847.709 742.046,847.535 742.183,847.368C742.405,847.146 742.68,847.008 742.967,846.954C742.967,846.948 742.966,846.942 742.966,846.936C742.735,846.973 742.462,847.089 742.183,847.368C742.283,847.245 742.384,847.126 742.44,847.07C742.572,846.938 742.774,846.812 742.873,846.648C742.948,846.524 743.029,846.4 743.113,846.276C743.219,846.013 743.345,845.732 743.345,845.732C743.345,845.732 743.259,845.917 743.244,845.958C743.326,845.72 743.452,845.483 743.589,845.248C743.39,845.029 743.196,844.686 743.128,844.242C743.061,843.813 743.12,843.217 743.183,842.964C743.224,842.802 743.264,842.638 743.304,842.473C743.053,842.523 742.772,842.558 742.546,842.526C741.962,842.442 741.496,842.143 741.211,841.572C741.013,841.177 740.949,840.713 741.033,840.215C741.103,839.806 741.349,839.339 741.426,839.03C741.641,838.171 741.989,837.351 742.22,836.496ZM744.28,837.811C744.285,837.8 744.287,837.794 744.287,837.794C744.285,837.8 744.282,837.805 744.28,837.811ZM743.556,836.271C743.545,836.277 743.535,836.282 743.524,836.287C743.58,836.262 743.629,836.24 743.629,836.24C743.629,836.24 743.602,836.252 743.556,836.271Z" style="fill:white;"/>
            <path d="M722.734,837.341C722.734,837.341 722.733,837.34 722.732,837.339C722.3,836.907 722.114,836.349 722.405,835.655C722.479,835.481 722.642,835.206 722.951,834.954C723.29,834.679 724.019,834.299 724.103,834.265C724.472,834.119 724.837,833.963 725.204,833.81C725.313,833.675 725.447,833.557 725.604,833.463C726.085,833.176 726.628,833.015 727.145,832.886C727.383,832.826 727.94,832.716 728.138,832.724C728.374,832.734 728.558,832.791 728.691,832.848C729.184,833.057 729.441,833.397 729.552,833.787C729.74,833.765 729.928,833.744 730.115,833.724C730.307,833.703 731.134,833.532 731.566,833.563C731.944,833.589 732.241,833.71 732.461,833.854C732.787,833.801 733.277,833.733 733.526,833.752C734.059,833.791 734.432,834.021 734.655,834.244C735.074,834.664 735.304,835.241 734.943,835.981C734.904,836.062 734.84,836.172 734.742,836.291L734.765,837.815C735.135,837.783 735.506,837.76 735.874,837.76C735.861,837.76 735.816,837.761 735.816,837.761C735.816,837.761 736.79,837.791 736.999,837.879C737.422,838.057 737.651,838.347 737.782,838.608C737.953,838.95 738.139,839.574 737.599,840.241C737.531,840.326 737.374,840.486 737.154,840.633C736.898,840.805 736.516,840.988 736.473,841.003C735.889,841.202 735.292,841.461 734.714,841.678C734.664,841.696 734.614,841.715 734.563,841.733L734.601,842.935C735.034,842.927 735.467,842.921 735.901,842.921C736.134,842.921 736.852,842.849 737.233,842.913C737.696,842.991 738.02,843.202 738.217,843.399C738.5,843.683 738.64,844.019 738.657,844.398C738.667,844.632 738.64,844.981 738.383,845.338C738.497,845.521 738.563,845.716 738.594,845.919C738.61,846.029 738.617,846.147 738.608,846.269C738.937,846.232 739.281,846.217 739.602,846.217C739.714,846.217 739.968,846.199 739.968,846.199L740.073,849.171C740.122,849.137 740.173,849.099 740.199,849.072C740.159,849.112 740.126,849.153 740.098,849.194L740.256,849.184L740.08,849.223C739.983,849.382 739.962,849.54 739.892,849.668C739.662,850.089 739.357,850.468 738.738,850.777C738.47,850.911 737.821,851.004 737.626,851.03C736.527,851.538 735.313,851.522 733.968,851.522C733.472,851.522 732.727,851.526 732.225,851.363C732.031,851.352 731.395,851.304 731.025,851.176C730.938,851.176 730.557,851.172 730.355,851.161C729.981,851.141 729.627,851.066 729.312,850.92C729.248,850.915 728.97,850.893 728.805,850.891C728.474,850.887 728.14,850.885 727.845,850.85C727.198,850.774 726.678,850.531 726.329,850.182C726.122,849.976 725.789,849.8 725.529,849.539C724.122,848.131 723.512,846.166 723.355,844.056L721.964,842.557C721.964,842.557 721.979,842.349 721.979,842.257C721.979,841.928 722.081,841.476 722.163,841.149C722.359,840.364 722.458,839.596 722.609,838.808C722.648,838.603 722.644,838.355 722.644,838.151C722.644,838.075 722.663,837.7 722.697,837.508C722.707,837.449 722.72,837.393 722.734,837.341ZM727.369,847.102C727.338,847.005 727.318,846.908 727.307,846.81C727.302,846.767 727.298,846.718 727.295,846.665C727.223,846.66 727.141,846.655 727.062,846.648C727.154,846.806 727.256,846.958 727.369,847.102Z" style="fill:white;"/>
        </g>
    </g>
</svg>
