<?xml version="1.0" encoding="UTF-8" standalone="no"?>
<!DOCTYPE svg PUBLIC "-//W3C//DTD SVG 1.1//EN" "http://www.w3.org/Graphics/SVG/1.1/DTD/svg11.dtd">
<svg width="100%" height="100%" viewBox="0 0 76 76" version="1.1" xmlns="http://www.w3.org/2000/svg" xmlns:xlink="http://www.w3.org/1999/xlink" xml:space="preserve" xmlns:serif="http://www.serif.com/" style="fill-rule:evenodd;clip-rule:evenodd;stroke-linecap:round;stroke-linejoin:round;stroke-miterlimit:1.5;">
    <g transform="matrix(1,0,0,1,-691.969,-843.036)">
        <g transform="matrix(1,0,0,1,-0.396558,4.13371)">
            <g transform="matrix(1.20887,0,0,1.06857,-43.8346,-16.8339)">
                <path d="M669.346,806.743C669.346,805.691 668.977,804.682 668.319,803.938C667.662,803.194 666.77,802.776 665.84,802.776C655.41,802.776 624.661,802.776 614.231,802.776C613.301,802.776 612.409,803.194 611.751,803.938C611.094,804.682 610.724,805.691 610.724,806.743C610.724,818.637 610.724,853.913 610.724,865.807C610.724,866.859 611.094,867.868 611.751,868.612C612.409,869.356 613.301,869.774 614.231,869.774C624.661,869.774 655.41,869.774 665.84,869.774C666.77,869.774 667.662,869.356 668.319,868.612C668.977,867.868 669.346,866.859 669.346,865.807C669.346,853.913 669.346,818.637 669.346,806.743Z" style="fill:none;stroke:white;stroke-width:3.65px;"/>
            </g>
            <g transform="matrix(1.06733,0,0,1.28752,55.5209,-231.428)">
                <clipPath id="_clip1">
                    <rect x="598.622" y="869.485" width="66.396" height="19.051"/>
                </clipPath>
                <g clip-path="url(#_clip1)">
                    <ellipse cx="631.82" cy="889.925" rx="33.198" ry="20.44" style="fill:white;"/>
                </g>
            </g>
            <g transform="matrix(2.49327,0,0,3.42562,-1072.19,-2090.05)">
                <ellipse cx="722.777" cy="862.85" rx="7.106" ry="5.172" style="fill:white;"/>
            </g>
        </g>
    </g>
</svg>
